<?xml version="1.0" encoding="UTF-8"?>
<svg xmlns="http://www.w3.org/2000/svg" viewBox="0 0 256 256">
  <defs>
    <linearGradient id="g" x1="0" y1="0" x2="1" y2="1">
      <stop offset="0%" stop-color="#7C3AED"/>
      <stop offset="100%" stop-color="#DB2777"/>
    </linearGradient>
    <filter id="shadow" x="-20%" y="-20%" width="140%" height="140%">
      <feDropShadow dx="0" dy="6" stdDeviation="8" flood-color="#000" flood-opacity="0.22"/>
    </filter>
  </defs>
  <rect rx="56" ry="56" x="16" y="16" width="224" height="224" fill="url(#g)"/>
  <g filter="url(#shadow)">
    <!-- Heart -->
    <path d="M128 196c-3 0-6-1-8-3l-54-50c-16-15-16-41 0-56c14-13 36-13 50 0l12 11l12-11c14-13 36-13 50 0c16 15 16 41 0 56l-54 50c-2 2-5 3-8 3z" fill="#fff"/>
    <!-- Graduation cap -->
    <path d="M128 78l76 26l-76 26l-76-26l76-26z" fill="#111827" opacity="0.95"/>
    <path d="M180 114v24c0 8-24 16-52 16s-52-8-52-16v-24" fill="#111827" opacity="0.9"/>
    <circle cx="196" cy="120" r="6" fill="#111827"/>
    <path d="M196 126v22" stroke="#111827" stroke-width="6" stroke-linecap="round"/>
  </g>
</svg>
